<svg xmlns="http://www.w3.org/2000/svg" viewBox="0 0 1920 1080" width="1920" height="1080" shape-rendering="crispEdges">
  <defs>
    <radialGradient id="pg1" cx="25%" cy="45%" r="40%">
      <stop offset="0%" stop-color="#ff8a00" stop-opacity="0.1"/>
      <stop offset="100%" stop-color="#ff8a00" stop-opacity="0"/>
    </radialGradient>
    <radialGradient id="pg2" cx="75%" cy="25%" r="35%">
      <stop offset="0%" stop-color="#ff3cac" stop-opacity="0.08"/>
      <stop offset="100%" stop-color="#ff3cac" stop-opacity="0"/>
    </radialGradient>
  </defs>

  <rect width="1920" height="1080" fill="#0a0a14"/>
  <rect width="1920" height="1080" fill="url(#pg1)"/>
  <rect width="1920" height="1080" fill="url(#pg2)"/>

  <!-- PIXEL GRID: 8px unit -->

  <!-- Primary eclipse — pixel circle, upper right area -->
  <!-- Orange ring pixels -->
  <g fill="#ff8a00" opacity="0.7">
    <!-- Top arc -->
    <rect x="1296" y="176" width="8" height="8"/><rect x="1304" y="176" width="8" height="8"/>
    <rect x="1312" y="176" width="8" height="8"/><rect x="1320" y="176" width="8" height="8"/>
    <rect x="1328" y="176" width="8" height="8"/><rect x="1336" y="176" width="8" height="8"/>
    <!-- Upper right arc -->
    <rect x="1344" y="184" width="8" height="8"/><rect x="1352" y="192" width="8" height="8"/>
    <rect x="1360" y="200" width="8" height="8"/><rect x="1368" y="208" width="8" height="8"/>
    <rect x="1368" y="216" width="8" height="8"/><rect x="1376" y="224" width="8" height="8"/>
    <rect x="1376" y="232" width="8" height="8"/><rect x="1376" y="240" width="8" height="8"/>
    <!-- Right side -->
    <rect x="1384" y="248" width="8" height="8"/><rect x="1384" y="256" width="8" height="8"/>
    <rect x="1384" y="264" width="8" height="8"/><rect x="1384" y="272" width="8" height="8"/>
    <!-- Lower right -->
    <rect x="1376" y="280" width="8" height="8"/><rect x="1376" y="288" width="8" height="8"/>
    <rect x="1376" y="296" width="8" height="8"/><rect x="1368" y="304" width="8" height="8"/>
    <rect x="1368" y="312" width="8" height="8"/><rect x="1360" y="320" width="8" height="8"/>
    <rect x="1352" y="328" width="8" height="8"/><rect x="1344" y="336" width="8" height="8"/>
    <!-- Bottom arc -->
    <rect x="1336" y="344" width="8" height="8"/><rect x="1328" y="344" width="8" height="8"/>
    <rect x="1320" y="344" width="8" height="8"/><rect x="1312" y="344" width="8" height="8"/>
    <rect x="1304" y="344" width="8" height="8"/><rect x="1296" y="344" width="8" height="8"/>
    <!-- Lower left -->
    <rect x="1288" y="336" width="8" height="8"/><rect x="1280" y="328" width="8" height="8"/>
    <rect x="1272" y="320" width="8" height="8"/><rect x="1264" y="312" width="8" height="8"/>
    <rect x="1264" y="304" width="8" height="8"/><rect x="1256" y="296" width="8" height="8"/>
    <rect x="1256" y="288" width="8" height="8"/><rect x="1256" y="280" width="8" height="8"/>
    <!-- Left side -->
    <rect x="1248" y="272" width="8" height="8"/><rect x="1248" y="264" width="8" height="8"/>
    <rect x="1248" y="256" width="8" height="8"/><rect x="1248" y="248" width="8" height="8"/>
    <!-- Upper left -->
    <rect x="1256" y="240" width="8" height="8"/><rect x="1256" y="232" width="8" height="8"/>
    <rect x="1256" y="224" width="8" height="8"/><rect x="1264" y="216" width="8" height="8"/>
    <rect x="1264" y="208" width="8" height="8"/><rect x="1272" y="200" width="8" height="8"/>
    <rect x="1280" y="192" width="8" height="8"/><rect x="1288" y="184" width="8" height="8"/>
  </g>

  <!-- Pixel occluding body (dark circle offset) -->
  <g fill="#0a0a14">
    <rect x="1304" y="192" width="8" height="8"/><rect x="1312" y="192" width="8" height="8"/>
    <rect x="1320" y="192" width="8" height="8"/><rect x="1328" y="192" width="8" height="8"/>
    <rect x="1336" y="192" width="8" height="8"/>
    <rect x="1296" y="200" width="8" height="8"/><rect x="1304" y="200" width="8" height="8"/>
    <rect x="1312" y="200" width="8" height="8"/><rect x="1320" y="200" width="8" height="8"/>
    <rect x="1328" y="200" width="8" height="8"/><rect x="1336" y="200" width="8" height="8"/>
    <rect x="1344" y="200" width="8" height="8"/><rect x="1352" y="200" width="8" height="8"/>
    <rect x="1288" y="208" width="8" height="8"/><rect x="1296" y="208" width="8" height="8"/>
    <rect x="1304" y="208" width="8" height="8"/><rect x="1312" y="208" width="8" height="8"/>
    <rect x="1320" y="208" width="8" height="8"/><rect x="1328" y="208" width="8" height="8"/>
    <rect x="1336" y="208" width="8" height="8"/><rect x="1344" y="208" width="8" height="8"/>
    <rect x="1352" y="208" width="8" height="8"/><rect x="1360" y="208" width="8" height="8"/>
    <!-- Fill middle rows -->
    <rect x="1280" y="216" width="96" height="8"/>
    <rect x="1272" y="224" width="104" height="8"/>
    <rect x="1272" y="232" width="104" height="8"/>
    <rect x="1272" y="240" width="104" height="8"/>
    <rect x="1264" y="248" width="120" height="8"/>
    <rect x="1264" y="256" width="120" height="8"/>
    <rect x="1264" y="264" width="120" height="8"/>
    <rect x="1264" y="272" width="120" height="8"/>
    <rect x="1272" y="280" width="112" height="8"/>
    <rect x="1272" y="288" width="104" height="8"/>
    <rect x="1272" y="296" width="104" height="8"/>
    <rect x="1280" y="304" width="96" height="8"/>
    <rect x="1280" y="312" width="88" height="8"/>
    <rect x="1288" y="320" width="80" height="8"/>
    <rect x="1296" y="328" width="64" height="8"/>
    <rect x="1304" y="336" width="40" height="8"/>
  </g>

  <!-- Secondary pixel eclipse — pink, left side -->
  <g fill="#ff3cac" opacity="0.6">
    <rect x="320" y="400" width="8" height="8"/><rect x="328" y="400" width="8" height="8"/>
    <rect x="336" y="400" width="8" height="8"/><rect x="344" y="400" width="8" height="8"/>
    <rect x="352" y="400" width="8" height="8"/>
    <rect x="360" y="408" width="8" height="8"/><rect x="368" y="416" width="8" height="8"/>
    <rect x="376" y="424" width="8" height="8"/><rect x="376" y="432" width="8" height="8"/>
    <rect x="384" y="440" width="8" height="8"/><rect x="384" y="448" width="8" height="8"/>
    <rect x="384" y="456" width="8" height="8"/><rect x="384" y="464" width="8" height="8"/>
    <rect x="376" y="472" width="8" height="8"/><rect x="376" y="480" width="8" height="8"/>
    <rect x="368" y="488" width="8" height="8"/><rect x="360" y="496" width="8" height="8"/>
    <rect x="352" y="504" width="8" height="8"/><rect x="344" y="504" width="8" height="8"/>
    <rect x="336" y="504" width="8" height="8"/><rect x="328" y="504" width="8" height="8"/>
    <rect x="320" y="504" width="8" height="8"/>
    <rect x="312" y="496" width="8" height="8"/><rect x="304" y="488" width="8" height="8"/>
    <rect x="296" y="480" width="8" height="8"/><rect x="296" y="472" width="8" height="8"/>
    <rect x="288" y="464" width="8" height="8"/><rect x="288" y="456" width="8" height="8"/>
    <rect x="288" y="448" width="8" height="8"/><rect x="288" y="440" width="8" height="8"/>
    <rect x="296" y="432" width="8" height="8"/><rect x="296" y="424" width="8" height="8"/>
    <rect x="304" y="416" width="8" height="8"/><rect x="312" y="408" width="8" height="8"/>
  </g>
  <!-- Pink eclipse occluder -->
  <g fill="#0a0a14">
    <rect x="328" y="408" width="40" height="8"/>
    <rect x="320" y="416" width="56" height="8"/>
    <rect x="312" y="424" width="64" height="8"/>
    <rect x="304" y="432" width="72" height="8"/>
    <rect x="304" y="440" width="80" height="8"/>
    <rect x="296" y="448" width="88" height="8"/>
    <rect x="296" y="456" width="88" height="8"/>
    <rect x="296" y="464" width="88" height="8"/>
    <rect x="304" y="472" width="72" height="8"/>
    <rect x="304" y="480" width="72" height="8"/>
    <rect x="312" y="488" width="56" height="8"/>
    <rect x="320" y="496" width="40" height="8"/>
  </g>

  <!-- Small gold pixel eclipse — bottom center -->
  <g fill="#ffaa00" opacity="0.5">
    <rect x="856" y="696" width="8" height="8"/><rect x="864" y="696" width="8" height="8"/>
    <rect x="872" y="696" width="8" height="8"/>
    <rect x="880" y="704" width="8" height="8"/><rect x="880" y="712" width="8" height="8"/>
    <rect x="880" y="720" width="8" height="8"/>
    <rect x="872" y="728" width="8" height="8"/><rect x="864" y="728" width="8" height="8"/>
    <rect x="856" y="728" width="8" height="8"/>
    <rect x="848" y="720" width="8" height="8"/><rect x="848" y="712" width="8" height="8"/>
    <rect x="848" y="704" width="8" height="8"/>
  </g>
  <g fill="#0a0a14">
    <rect x="856" y="704" width="24" height="8"/>
    <rect x="856" y="712" width="24" height="8"/>
    <rect x="856" y="720" width="24" height="8"/>
  </g>

  <!-- Pixel ritual symbol — diamond/cross pattern center -->
  <g fill="#ff8a00" opacity="0.15">
    <!-- Vertical line -->
    <rect x="956" y="440" width="8" height="8"/><rect x="956" y="448" width="8" height="8"/>
    <rect x="956" y="456" width="8" height="8"/><rect x="956" y="464" width="8" height="8"/>
    <rect x="956" y="472" width="8" height="8"/><rect x="956" y="480" width="8" height="8"/>
    <rect x="956" y="488" width="8" height="8"/><rect x="956" y="496" width="8" height="8"/>
    <rect x="956" y="504" width="8" height="8"/><rect x="956" y="512" width="8" height="8"/>
    <rect x="956" y="520" width="8" height="8"/><rect x="956" y="528" width="8" height="8"/>
    <rect x="956" y="536" width="8" height="8"/><rect x="956" y="544" width="8" height="8"/>
    <rect x="956" y="552" width="8" height="8"/><rect x="956" y="560" width="8" height="8"/>
    <rect x="956" y="568" width="8" height="8"/><rect x="956" y="576" width="8" height="8"/>
    <rect x="956" y="584" width="8" height="8"/><rect x="956" y="592" width="8" height="8"/>
    <rect x="956" y="600" width="8" height="8"/><rect x="956" y="608" width="8" height="8"/>
    <rect x="956" y="616" width="8" height="8"/><rect x="956" y="624" width="8" height="8"/>
    <!-- Horizontal line -->
    <rect x="876" y="536" width="8" height="8"/><rect x="884" y="536" width="8" height="8"/>
    <rect x="892" y="536" width="8" height="8"/><rect x="900" y="536" width="8" height="8"/>
    <rect x="908" y="536" width="8" height="8"/><rect x="916" y="536" width="8" height="8"/>
    <rect x="924" y="536" width="8" height="8"/><rect x="932" y="536" width="8" height="8"/>
    <rect x="940" y="536" width="8" height="8"/><rect x="948" y="536" width="8" height="8"/>
    <rect x="964" y="536" width="8" height="8"/><rect x="972" y="536" width="8" height="8"/>
    <rect x="980" y="536" width="8" height="8"/><rect x="988" y="536" width="8" height="8"/>
    <rect x="996" y="536" width="8" height="8"/><rect x="1004" y="536" width="8" height="8"/>
    <rect x="1012" y="536" width="8" height="8"/><rect x="1020" y="536" width="8" height="8"/>
    <rect x="1028" y="536" width="8" height="8"/><rect x="1036" y="536" width="8" height="8"/>
  </g>

  <!-- Pixel diamond around center -->
  <g fill="#ff3cac" opacity="0.1">
    <rect x="956" y="480" width="8" height="8"/>
    <rect x="948" y="488" width="8" height="8"/><rect x="964" y="488" width="8" height="8"/>
    <rect x="940" y="496" width="8" height="8"/><rect x="972" y="496" width="8" height="8"/>
    <rect x="932" y="504" width="8" height="8"/><rect x="980" y="504" width="8" height="8"/>
    <rect x="924" y="512" width="8" height="8"/><rect x="988" y="512" width="8" height="8"/>
    <rect x="916" y="520" width="8" height="8"/><rect x="996" y="520" width="8" height="8"/>
    <rect x="908" y="528" width="8" height="8"/><rect x="1004" y="528" width="8" height="8"/>
    <rect x="908" y="544" width="8" height="8"/><rect x="1004" y="544" width="8" height="8"/>
    <rect x="916" y="552" width="8" height="8"/><rect x="996" y="552" width="8" height="8"/>
    <rect x="924" y="560" width="8" height="8"/><rect x="988" y="560" width="8" height="8"/>
    <rect x="932" y="568" width="8" height="8"/><rect x="980" y="568" width="8" height="8"/>
    <rect x="940" y="576" width="8" height="8"/><rect x="972" y="576" width="8" height="8"/>
    <rect x="948" y="584" width="8" height="8"/><rect x="964" y="584" width="8" height="8"/>
    <rect x="956" y="592" width="8" height="8"/>
  </g>

  <!-- Pixel stars scattered -->
  <g fill="#e8e8ec">
    <rect x="120" y="80" width="4" height="4" opacity="0.3"/>
    <rect x="480" y="160" width="4" height="4" opacity="0.25"/>
    <rect x="720" y="96" width="4" height="4" opacity="0.2"/>
    <rect x="1080" y="64" width="4" height="4" opacity="0.35"/>
    <rect x="1560" y="120" width="4" height="4" opacity="0.2"/>
    <rect x="1760" y="200" width="4" height="4" opacity="0.25"/>
    <rect x="200" y="880" width="4" height="4" opacity="0.15"/>
    <rect x="600" y="960" width="4" height="4" opacity="0.2"/>
    <rect x="1400" y="840" width="4" height="4" opacity="0.18"/>
    <rect x="1700" y="520" width="4" height="4" opacity="0.22"/>
    <rect x="80" y="520" width="4" height="4" opacity="0.2"/>
    <rect x="1840" y="760" width="4" height="4" opacity="0.15"/>
    <rect x="640" y="320" width="4" height="4" opacity="0.18"/>
    <rect x="1160" y="680" width="4" height="4" opacity="0.22"/>
  </g>

  <!-- Scanline effect — faint horizontal lines -->
  <g stroke="#e8e8ec" stroke-width="0.5" opacity="0.02">
    <line x1="0" y1="2" x2="1920" y2="2"/>
    <line x1="0" y1="6" x2="1920" y2="6"/>
    <line x1="0" y1="10" x2="1920" y2="10"/>
    <line x1="0" y1="14" x2="1920" y2="14"/>
    <line x1="0" y1="18" x2="1920" y2="18"/>
  </g>
  <pattern id="scanlines" patternUnits="userSpaceOnUse" width="4" height="4">
    <line x1="0" y1="0" x2="4" y2="0" stroke="#e8e8ec" stroke-width="0.5" opacity="0.025"/>
  </pattern>
  <rect width="1920" height="1080" fill="url(#scanlines)"/>
</svg>