<svg xmlns="http://www.w3.org/2000/svg" viewBox="0 0 1920 1080" preserveAspectRatio="xMidYMid slice">
  <defs>
    <radialGradient id="glow1" cx="50%" cy="50%" r="50%">
      <stop offset="0%" stop-color="#ff8a00" stop-opacity="0.15"/>
      <stop offset="100%" stop-color="#ff8a00" stop-opacity="0"/>
    </radialGradient>
    <radialGradient id="glow2" cx="50%" cy="50%" r="50%">
      <stop offset="0%" stop-color="#ff3cac" stop-opacity="0.12"/>
      <stop offset="100%" stop-color="#ff3cac" stop-opacity="0"/>
    </radialGradient>
    <radialGradient id="glow3" cx="50%" cy="50%" r="50%">
      <stop offset="0%" stop-color="#ffaa00" stop-opacity="0.08"/>
      <stop offset="100%" stop-color="#ffaa00" stop-opacity="0"/>
    </radialGradient>
    <!-- Milky sky gradient — fades from warm haze at horizon to deep dark at top -->
    <linearGradient id="skyGrad" x1="0" y1="0" x2="0" y2="1">
      <stop offset="0%" stop-color="#0a0a14" stop-opacity="1"/>
      <stop offset="60%" stop-color="#0a0a14" stop-opacity="1"/>
      <stop offset="85%" stop-color="#1a1028" stop-opacity="1"/>
      <stop offset="95%" stop-color="#120e22" stop-opacity="1"/>
      <stop offset="100%" stop-color="#0e0a1e" stop-opacity="1"/>
    </linearGradient>
    <!-- Horizon glow -->
    <linearGradient id="horizonGlow" x1="0" y1="0" x2="0" y2="1">
      <stop offset="0%" stop-color="#ff8a00" stop-opacity="0.06"/>
      <stop offset="50%" stop-color="#ff3cac" stop-opacity="0.04"/>
      <stop offset="100%" stop-color="#0a0a14" stop-opacity="0"/>
    </linearGradient>
    <!-- Eclipse corona effect -->
    <filter id="corona">
      <feGaussianBlur in="SourceGraphic" stdDeviation="3"/>
    </filter>
    <filter id="softglow">
      <feGaussianBlur in="SourceGraphic" stdDeviation="8"/>
    </filter>
    <filter id="starglow">
      <feGaussianBlur in="SourceGraphic" stdDeviation="1.5"/>
    </filter>
    <!-- Mirror-like reflection: slight ripple + mild soften (avoid heavy blur that wipes thin strokes) -->
    <filter id="reflectWater" x="-5%" y="-5%" width="110%" height="110%" color-interpolation-filters="sRGB">
      <feTurbulence type="fractalNoise" baseFrequency="0.012 0.065" numOctaves="2" seed="91" result="ripple"/>
      <feDisplacementMap in="SourceGraphic" in2="ripple" scale="6" xChannelSelector="R" yChannelSelector="G" result="warped"/>
      <feGaussianBlur in="warped" stdDeviation="0.85" result="smooth"/>
    </filter>
    <clipPath id="waterClip">
      <rect x="0" y="750" width="1920" height="330"/>
    </clipPath>
    <linearGradient id="reflectFadeGrad" x1="0" y1="750" x2="0" y2="1080" gradientUnits="userSpaceOnUse">
      <stop offset="0%" stop-color="#fff" stop-opacity="1"/>
      <stop offset="35%" stop-color="#fff" stop-opacity="0.88"/>
      <stop offset="100%" stop-color="#fff" stop-opacity="0.62"/>
    </linearGradient>
    <mask id="reflectMoonMask">
      <rect x="0" y="750" width="1920" height="330" fill="url(#reflectFadeGrad)"/>
    </mask>
    <!-- Diffuse color on water under each disk so mirror read isn’t stroke-only -->
    <radialGradient id="reflPool1" cx="50%" cy="45%" r="55%">
      <stop offset="0%" stop-color="#ff8a00" stop-opacity="0.22"/>
      <stop offset="55%" stop-color="#ff6b20" stop-opacity="0.08"/>
      <stop offset="100%" stop-color="#0e0a1e" stop-opacity="0"/>
    </radialGradient>
    <radialGradient id="reflPool2" cx="52%" cy="48%" r="55%">
      <stop offset="0%" stop-color="#ff3cac" stop-opacity="0.2"/>
      <stop offset="55%" stop-color="#c94daf" stop-opacity="0.07"/>
      <stop offset="100%" stop-color="#0e0a1e" stop-opacity="0"/>
    </radialGradient>
    <radialGradient id="reflPool3" cx="52%" cy="48%" r="55%">
      <stop offset="0%" stop-color="#ff6b9d" stop-opacity="0.18"/>
      <stop offset="60%" stop-color="#b84a7a" stop-opacity="0.06"/>
      <stop offset="100%" stop-color="#0e0a1e" stop-opacity="0"/>
    </radialGradient>
    <radialGradient id="reflPool4" cx="50%" cy="48%" r="58%">
      <stop offset="0%" stop-color="#ffaa00" stop-opacity="0.16"/>
      <stop offset="65%" stop-color="#c98820" stop-opacity="0.06"/>
      <stop offset="100%" stop-color="#0e0a1e" stop-opacity="0"/>
    </radialGradient>
  </defs>

  <!-- Deep sky background with milky warmth near horizon -->
  <rect width="1920" height="1080" fill="url(#skyGrad)"/>

  <!-- Subtle ambient glows -->
  <ellipse cx="380" cy="400" rx="500" ry="400" fill="url(#glow1)"/>
  <ellipse cx="1500" cy="250" rx="600" ry="450" fill="url(#glow2)"/>
  <ellipse cx="960" cy="800" rx="700" ry="350" fill="url(#glow3)"/>

  <!-- ==================== STARFIELD ==================== -->
  <!-- Bright stars -->
  <circle cx="120" cy="45" r="1.2" fill="#e8e8ec" opacity="0.5"/>
  <circle cx="285" cy="92" r="1.4" fill="#e8e8ec" opacity="0.45"/>
  <circle cx="430" cy="30" r="1" fill="#e8e8ec" opacity="0.4"/>
  <circle cx="580" cy="115" r="1.3" fill="#e8e8ec" opacity="0.35"/>
  <circle cx="710" cy="55" r="1.5" fill="#ffe8cc" opacity="0.5"/>
  <circle cx="870" cy="40" r="1.1" fill="#e8e8ec" opacity="0.4"/>
  <circle cx="1020" cy="88" r="1.3" fill="#e8e8ec" opacity="0.45"/>
  <circle cx="1180" cy="35" r="1" fill="#ffe8cc" opacity="0.38"/>
  <circle cx="1350" cy="72" r="1.4" fill="#e8e8ec" opacity="0.42"/>
  <circle cx="1520" cy="50" r="1.2" fill="#e8e8ec" opacity="0.5"/>
  <circle cx="1680" cy="95" r="1.1" fill="#e8e8ec" opacity="0.35"/>
  <circle cx="1830" cy="38" r="1.3" fill="#ffe8cc" opacity="0.4"/>

  <!-- Mid-field stars -->
  <circle cx="65" cy="180" r="0.9" fill="#e8e8ec" opacity="0.3"/>
  <circle cx="190" cy="250" r="0.7" fill="#e8e8ec" opacity="0.25"/>
  <circle cx="340" cy="195" r="1" fill="#e8e8ec" opacity="0.28"/>
  <circle cx="480" cy="310" r="0.8" fill="#e8e8ec" opacity="0.22"/>
  <circle cx="620" cy="230" r="0.9" fill="#ffe8cc" opacity="0.3"/>
  <circle cx="760" cy="175" r="0.7" fill="#e8e8ec" opacity="0.2"/>
  <circle cx="910" cy="290" r="0.8" fill="#e8e8ec" opacity="0.25"/>
  <circle cx="1060" cy="210" r="1" fill="#e8e8ec" opacity="0.3"/>
  <circle cx="1200" cy="315" r="0.7" fill="#e8e8ec" opacity="0.22"/>
  <circle cx="1390" cy="195" r="0.9" fill="#ffe8cc" opacity="0.28"/>
  <circle cx="1550" cy="280" r="0.8" fill="#e8e8ec" opacity="0.2"/>
  <circle cx="1720" cy="230" r="0.7" fill="#e8e8ec" opacity="0.25"/>
  <circle cx="1870" cy="175" r="0.9" fill="#e8e8ec" opacity="0.3"/>

  <!-- Dim scattered stars -->
  <circle cx="150" cy="380" r="0.6" fill="#e8e8ec" opacity="0.18"/>
  <circle cx="310" cy="520" r="0.5" fill="#e8e8ec" opacity="0.15"/>
  <circle cx="530" cy="430" r="0.7" fill="#e8e8ec" opacity="0.16"/>
  <circle cx="670" cy="380" r="0.5" fill="#e8e8ec" opacity="0.14"/>
  <circle cx="820" cy="500" r="0.6" fill="#e8e8ec" opacity="0.18"/>
  <circle cx="1000" cy="420" r="0.5" fill="#e8e8ec" opacity="0.15"/>
  <circle cx="1150" cy="550" r="0.7" fill="#e8e8ec" opacity="0.14"/>
  <circle cx="1300" cy="480" r="0.5" fill="#e8e8ec" opacity="0.16"/>
  <circle cx="1460" cy="400" r="0.6" fill="#e8e8ec" opacity="0.18"/>
  <circle cx="1630" cy="520" r="0.5" fill="#e8e8ec" opacity="0.12"/>
  <circle cx="1780" cy="440" r="0.6" fill="#e8e8ec" opacity="0.15"/>
  <circle cx="50" cy="580" r="0.5" fill="#e8e8ec" opacity="0.12"/>
  <circle cx="1900" cy="350" r="0.5" fill="#e8e8ec" opacity="0.13"/>

  <!-- A few brighter accent stars with glow -->
  <circle cx="710" cy="55" r="3" fill="#ffe8cc" opacity="0.08" filter="url(#starglow)"/>
  <circle cx="285" cy="92" r="2.5" fill="#e8e8ec" opacity="0.06" filter="url(#starglow)"/>
  <circle cx="1520" cy="50" r="3" fill="#e8e8ec" opacity="0.07" filter="url(#starglow)"/>

  <!-- ==================== ECLIPSES ==================== -->

  <!-- Primary eclipse — large, upper right -->
  <circle cx="1340" cy="280" r="120" fill="none" stroke="#ff8a00" stroke-width="1.5" opacity="0.6"/>
  <circle cx="1340" cy="280" r="120" fill="none" stroke="#ff8a00" stroke-width="4" opacity="0.15" filter="url(#softglow)"/>
  <!-- Occluding body -->
  <circle cx="1365" cy="265" r="105" fill="#0a0a14"/>
  <!-- Corona wisps -->
  <path d="M 1225 250 Q 1200 280 1220 310" fill="none" stroke="#ff8a00" stroke-width="0.8" opacity="0.4"/>
  <path d="M 1240 200 Q 1220 230 1235 260" fill="none" stroke="#ffaa00" stroke-width="0.6" opacity="0.3"/>

  <!-- Secondary eclipse — medium, left -->
  <circle cx="350" cy="450" r="80" fill="none" stroke="#ff3cac" stroke-width="1.2" opacity="0.5"/>
  <circle cx="350" cy="450" r="80" fill="none" stroke="#ff3cac" stroke-width="3" opacity="0.12" filter="url(#softglow)"/>
  <circle cx="370" cy="438" r="70" fill="#0a0a14"/>
  <path d="M 275 430 Q 260 450 270 475" fill="none" stroke="#ff3cac" stroke-width="0.6" opacity="0.35"/>

  <!-- Tertiary eclipse — small, lower center -->
  <circle cx="880" cy="620" r="50" fill="none" stroke="#ff6b9d" stroke-width="1" opacity="0.4"/>
  <circle cx="880" cy="620" r="50" fill="none" stroke="#ff6b9d" stroke-width="2.5" opacity="0.1" filter="url(#softglow)"/>
  <circle cx="893" cy="612" r="43" fill="#0a0a14"/>

  <!-- Fourth eclipse — tiny, accent -->
  <circle cx="1600" cy="550" r="30" fill="none" stroke="#ffaa00" stroke-width="0.8" opacity="0.35"/>
  <circle cx="1600" cy="550" r="30" fill="none" stroke="#ffaa00" stroke-width="2" opacity="0.08" filter="url(#softglow)"/>
  <circle cx="1610" cy="544" r="26" fill="#0a0a14"/>

  <!-- ==================== RITUAL GEOMETRY ==================== -->

  <!-- Concentric rings connecting eclipses -->
  <circle cx="960" cy="440" r="400" fill="none" stroke="#ff8a00" stroke-width="0.3" opacity="0.12"/>
  <circle cx="960" cy="440" r="500" fill="none" stroke="#ff3cac" stroke-width="0.25" opacity="0.08"/>
  <circle cx="960" cy="440" r="320" fill="none" stroke="#ffaa00" stroke-width="0.2" opacity="0.1"/>

  <!-- Connecting lines — ritual paths -->
  <line x1="350" y1="450" x2="880" y2="620" stroke="#ff3cac" stroke-width="0.3" opacity="0.08"/>
  <line x1="880" y1="620" x2="1340" y2="280" stroke="#ff8a00" stroke-width="0.3" opacity="0.08"/>
  <line x1="1340" y1="280" x2="350" y2="450" stroke="#ff6b9d" stroke-width="0.3" opacity="0.08"/>
  <line x1="1600" y1="550" x2="880" y2="620" stroke="#ffaa00" stroke-width="0.2" opacity="0.06"/>

  <!-- ==================== WIREFRAME LINES ==================== -->

  <!-- Perspective grid lines converging at horizon vanishing point (960, 750) -->
  <!-- Vertical fan lines from vanishing point -->
  <line x1="960" y1="750" x2="0" y2="1080" stroke="#ff8a00" stroke-width="0.3" opacity="0.06"/>
  <line x1="960" y1="750" x2="192" y2="1080" stroke="#ff8a00" stroke-width="0.3" opacity="0.05"/>
  <line x1="960" y1="750" x2="384" y2="1080" stroke="#ff8a00" stroke-width="0.3" opacity="0.06"/>
  <line x1="960" y1="750" x2="576" y2="1080" stroke="#ff8a00" stroke-width="0.3" opacity="0.05"/>
  <line x1="960" y1="750" x2="768" y2="1080" stroke="#ff8a00" stroke-width="0.3" opacity="0.06"/>
  <line x1="960" y1="750" x2="960" y2="1080" stroke="#ff8a00" stroke-width="0.35" opacity="0.07"/>
  <line x1="960" y1="750" x2="1152" y2="1080" stroke="#ff8a00" stroke-width="0.3" opacity="0.06"/>
  <line x1="960" y1="750" x2="1344" y2="1080" stroke="#ff8a00" stroke-width="0.3" opacity="0.05"/>
  <line x1="960" y1="750" x2="1536" y2="1080" stroke="#ff8a00" stroke-width="0.3" opacity="0.06"/>
  <line x1="960" y1="750" x2="1728" y2="1080" stroke="#ff8a00" stroke-width="0.3" opacity="0.05"/>
  <line x1="960" y1="750" x2="1920" y2="1080" stroke="#ff8a00" stroke-width="0.3" opacity="0.06"/>

  <!-- Horizontal wireframe lines — perspective-scaled spacing -->
  <line x1="0" y1="780" x2="1920" y2="780" stroke="#ff8a00" stroke-width="0.2" opacity="0.04"/>
  <line x1="0" y1="815" x2="1920" y2="815" stroke="#ff8a00" stroke-width="0.2" opacity="0.05"/>
  <line x1="0" y1="855" x2="1920" y2="855" stroke="#ff8a00" stroke-width="0.25" opacity="0.05"/>
  <line x1="0" y1="900" x2="1920" y2="900" stroke="#ff8a00" stroke-width="0.25" opacity="0.06"/>
  <line x1="0" y1="950" x2="1920" y2="950" stroke="#ff8a00" stroke-width="0.3" opacity="0.06"/>
  <line x1="0" y1="1010" x2="1920" y2="1010" stroke="#ff8a00" stroke-width="0.3" opacity="0.07"/>

  <!-- ==================== STYLIZED HORIZON LINE ==================== -->

  <!-- Horizon glow line -->
  <line x1="0" y1="750" x2="1920" y2="750" stroke="#ff8a00" stroke-width="1.5" opacity="0.08" filter="url(#softglow)"/>
  <line x1="0" y1="750" x2="1920" y2="750" stroke="#ff8a00" stroke-width="0.5" opacity="0.15"/>

  <!-- Stylized horizon silhouette — flat, deep teal complement to warm nebula -->
  <rect x="0" y="750" width="1920" height="330" fill="#0e0a1e"/>

  <!-- Horizon wireframe detail — flat line accent -->
  <line x1="0" y1="750" x2="1920" y2="750" stroke="#ff3cac" stroke-width="0.5" opacity="0.2"/>

  <!-- ==================== TERRAIN CHEVRONS ==================== -->
  <!-- Layered dark gray chevrons suggesting rolling hills receding to horizon -->

  <!-- Row 1 — closest to horizon, smallest, most subtle -->
  <g opacity="0.08">
    <polyline points="60,762 120,756 180,762" fill="none" stroke="#888" stroke-width="0.6"/>
    <polyline points="220,764 300,757 380,764" fill="none" stroke="#888" stroke-width="0.6"/>
    <polyline points="440,761 510,755 580,761" fill="none" stroke="#777" stroke-width="0.5"/>
    <polyline points="650,763 740,756 830,763" fill="none" stroke="#888" stroke-width="0.6"/>
    <polyline points="900,762 970,756 1040,762" fill="none" stroke="#777" stroke-width="0.5"/>
    <polyline points="1110,764 1200,757 1290,764" fill="none" stroke="#888" stroke-width="0.6"/>
    <polyline points="1350,761 1430,755 1510,761" fill="none" stroke="#777" stroke-width="0.5"/>
    <polyline points="1580,763 1660,757 1740,763" fill="none" stroke="#888" stroke-width="0.6"/>
    <polyline points="1800,762 1860,756 1920,762" fill="none" stroke="#777" stroke-width="0.5"/>
  </g>

  <!-- Row 2 — slightly larger chevrons -->
  <g opacity="0.07">
    <polyline points="0,785 100,774 200,785" fill="none" stroke="#666" stroke-width="0.7"/>
    <polyline points="180,788 310,776 440,788" fill="none" stroke="#777" stroke-width="0.6"/>
    <polyline points="500,784 620,773 740,784" fill="none" stroke="#666" stroke-width="0.7"/>
    <polyline points="780,787 920,775 1060,787" fill="none" stroke="#777" stroke-width="0.6"/>
    <polyline points="1100,785 1230,774 1360,785" fill="none" stroke="#666" stroke-width="0.7"/>
    <polyline points="1400,787 1540,775 1680,787" fill="none" stroke="#777" stroke-width="0.6"/>
    <polyline points="1720,784 1820,774 1920,784" fill="none" stroke="#666" stroke-width="0.7"/>
  </g>

  <!-- Row 3 — medium chevrons, wider spacing -->
  <g opacity="0.06">
    <polyline points="40,820 200,804 360,820" fill="none" stroke="#555" stroke-width="0.8"/>
    <polyline points="320,824 520,806 720,824" fill="none" stroke="#666" stroke-width="0.7"/>
    <polyline points="680,818 880,802 1080,818" fill="none" stroke="#555" stroke-width="0.8"/>
    <polyline points="1040,822 1240,806 1440,822" fill="none" stroke="#666" stroke-width="0.7"/>
    <polyline points="1400,820 1600,804 1800,820" fill="none" stroke="#555" stroke-width="0.8"/>
  </g>

  <!-- Row 4 — broader, bolder chevrons -->
  <g opacity="0.05">
    <polyline points="0,860 240,838 480,860" fill="none" stroke="#555" stroke-width="0.9"/>
    <polyline points="400,865 700,840 1000,865" fill="none" stroke="#4a4a4a" stroke-width="0.8"/>
    <polyline points="900,858 1200,836 1500,858" fill="none" stroke="#555" stroke-width="0.9"/>
    <polyline points="1420,862 1670,840 1920,862" fill="none" stroke="#4a4a4a" stroke-width="0.8"/>
  </g>

  <!-- Row 5 — wide sweeping chevrons, barely visible -->
  <g opacity="0.04">
    <polyline points="0,910 380,880 760,910" fill="none" stroke="#444" stroke-width="1"/>
    <polyline points="600,915 960,882 1320,915" fill="none" stroke="#4a4a4a" stroke-width="0.9"/>
    <polyline points="1200,908 1560,878 1920,908" fill="none" stroke="#444" stroke-width="1"/>
  </g>

  <!-- Row 6 — deepest, widest chevrons -->
  <g opacity="0.03">
    <polyline points="0,970 480,930 960,970" fill="none" stroke="#3a3a3a" stroke-width="1.2"/>
    <polyline points="960,975 1440,932 1920,975" fill="none" stroke="#3a3a3a" stroke-width="1.2"/>
  </g>

  <!-- All moons reflected in water: true mirror fits for most; primary is nudged up (true mirror y=1220 is below viewBox 1080) -->
  <g clip-path="url(#waterClip)" mask="url(#reflectMoonMask)" opacity="0.92" filter="url(#reflectWater)">
    <g transform="translate(0,1500) scale(1,-1)">
      <!-- Secondary -->
      <circle cx="350" cy="450" r="78" fill="url(#reflPool2)"/>
      <circle cx="350" cy="450" r="80" fill="none" stroke="#ff3cac" stroke-width="1.8" opacity="0.82"/>
      <circle cx="350" cy="450" r="80" fill="none" stroke="#ff7ec8" stroke-width="4" opacity="0.22"/>
      <circle cx="370" cy="438" r="70" fill="#0e0a1e" opacity="0.9"/>
      <path d="M 275 430 Q 260 450 270 475" fill="none" stroke="#ff3cac" stroke-width="0.85" opacity="0.55"/>
      <!-- Tertiary -->
      <circle cx="880" cy="620" r="48" fill="url(#reflPool3)"/>
      <circle cx="880" cy="620" r="50" fill="none" stroke="#ff6b9d" stroke-width="1.5" opacity="0.78"/>
      <circle cx="880" cy="620" r="50" fill="none" stroke="#ff9ec4" stroke-width="3.2" opacity="0.2"/>
      <circle cx="893" cy="612" r="43" fill="#0e0a1e" opacity="0.88"/>
      <!-- Fourth (tiny) — mirror lands in-band; boosted slightly for visibility -->
      <circle cx="1600" cy="550" r="28" fill="url(#reflPool4)"/>
      <circle cx="1600" cy="550" r="30" fill="none" stroke="#ffaa00" stroke-width="1.35" opacity="0.8"/>
      <circle cx="1600" cy="550" r="30" fill="none" stroke="#ffd080" stroke-width="2.8" opacity="0.22"/>
      <circle cx="1610" cy="544" r="26" fill="#0e0a1e" opacity="0.88"/>
    </g>
    <!-- Primary (large): outer translate after mirror pulls disk from y≈1220 into the water strip -->
    <g transform="translate(0,-294)">
      <g transform="translate(0,1500) scale(1,-1)">
        <circle cx="1340" cy="280" r="118" fill="url(#reflPool1)"/>
        <circle cx="1340" cy="280" r="120" fill="none" stroke="#ff8a00" stroke-width="2.2" opacity="0.88"/>
        <circle cx="1340" cy="280" r="120" fill="none" stroke="#ffb347" stroke-width="5" opacity="0.28"/>
        <circle cx="1365" cy="265" r="105" fill="#0e0a1e" opacity="0.92"/>
        <path d="M 1225 250 Q 1200 280 1220 310" fill="none" stroke="#ff8a00" stroke-width="1.1" opacity="0.62"/>
        <path d="M 1240 200 Q 1220 230 1235 260" fill="none" stroke="#ffaa00" stroke-width="0.85" opacity="0.48"/>
      </g>
    </g>
  </g>
</svg>
